<svg xmlns="http://www.w3.org/2000/svg" width="1000" height="66" viewBox="0 0 1000 66">
  <defs>
    <clipPath id="card"><rect width="1000" height="66"/></clipPath>
    <linearGradient id="gold" gradientUnits="userSpaceOnUse" x1="0" y1="0" x2="1000" y2="66"><stop offset="0" stop-color="#8F6E2C"/><stop offset="0.45" stop-color="#C9A452"/><stop offset="1" stop-color="#E6C878"/></linearGradient>
    <linearGradient id="fR" x1="0" y1="0" x2="1" y2="0"><stop offset="0" stop-color="#fff"/><stop offset="1" stop-color="#000"/></linearGradient><linearGradient id="fL" x1="1" y1="0" x2="0" y2="0"><stop offset="0" stop-color="#fff"/><stop offset="1" stop-color="#000"/></linearGradient><linearGradient id="fB" x1="0" y1="0" x2="0" y2="1"><stop offset="0" stop-color="#fff"/><stop offset="1" stop-color="#000"/></linearGradient><linearGradient id="fT" x1="0" y1="1" x2="0" y2="0"><stop offset="0" stop-color="#fff"/><stop offset="1" stop-color="#000"/></linearGradient>
    <mask id="feathH" maskUnits="userSpaceOnUse" x="-1000" y="-66" width="3000" height="198"><rect width="1000" height="66" fill="#fff"/><rect x="920" width="80" height="66" fill="url(#fR)"/><rect width="80" height="66" fill="url(#fL)"/></mask>
    <mask id="feathV" maskUnits="userSpaceOnUse" x="-1000" y="-66" width="3000" height="198"><rect width="1000" height="66" fill="#fff"/><rect y="42" width="1000" height="24" fill="url(#fB)"/><rect width="1000" height="24" fill="url(#fT)"/></mask>
    <filter id="rough" x="-15%" y="-15%" width="130%" height="130%"><feTurbulence type="fractalNoise" baseFrequency="0.11" numOctaves="3" seed="3" result="n"/><feDisplacementMap in="SourceGraphic" in2="n" scale="3.2" xChannelSelector="R" yChannelSelector="G"/></filter>
    <filter id="wash" x="-40%" y="-40%" width="180%" height="180%"><feGaussianBlur stdDeviation="5"/></filter>
    <filter id="bokeh" x="-60%" y="-60%" width="220%" height="220%"><feGaussianBlur stdDeviation="2.2"/></filter>
    <symbol id="f0" viewBox="-10 -10 20 20"><path d="M0,0C-2.6,-2.4 -6.2,-5.6 -3.8,-8.6C-2.4,-10.3 -0.6,-9.4 0,-8.1C0.6,-9.4 2.4,-10.3 3.8,-8.6C6.2,-5.6 2.6,-2.4 0,0Z" transform="rotate(0)"/><path d="M0,0C-2.6,-2.4 -6.2,-5.6 -3.8,-8.6C-2.4,-10.3 -0.6,-9.4 0,-8.1C0.6,-9.4 2.4,-10.3 3.8,-8.6C6.2,-5.6 2.6,-2.4 0,0Z" transform="rotate(72)"/><path d="M0,0C-2.6,-2.4 -6.2,-5.6 -3.8,-8.6C-2.4,-10.3 -0.6,-9.4 0,-8.1C0.6,-9.4 2.4,-10.3 3.8,-8.6C6.2,-5.6 2.6,-2.4 0,0Z" transform="rotate(144)"/><path d="M0,0C-2.6,-2.4 -6.2,-5.6 -3.8,-8.6C-2.4,-10.3 -0.6,-9.4 0,-8.1C0.6,-9.4 2.4,-10.3 3.8,-8.6C6.2,-5.6 2.6,-2.4 0,0Z" transform="rotate(216)"/><path d="M0,0C-2.6,-2.4 -6.2,-5.6 -3.8,-8.6C-2.4,-10.3 -0.6,-9.4 0,-8.1C0.6,-9.4 2.4,-10.3 3.8,-8.6C6.2,-5.6 2.6,-2.4 0,0Z" transform="rotate(288)"/><circle r="1.5" fill="#8E1548" opacity="0.85"/><g fill="#FFE9A8"><circle cx="1.6" cy="1.2" r="0.5"/><circle cx="-0.6" cy="1.9" r="0.5"/><circle cx="-2.0" cy="0.0" r="0.5"/><circle cx="-0.6" cy="-1.9" r="0.5"/><circle cx="1.6" cy="-1.2" r="0.5"/></g></symbol><symbol id="f1" viewBox="-10 -10 20 20"><path d="M0,0C-2.6,-2.4 -6.2,-5.6 -3.8,-8.6C-2.4,-10.3 -0.6,-9.4 0,-8.1C0.6,-9.4 2.4,-10.3 3.8,-8.6C6.2,-5.6 2.6,-2.4 0,0Z" transform="rotate(24)"/><path d="M0,0C-2.6,-2.4 -6.2,-5.6 -3.8,-8.6C-2.4,-10.3 -0.6,-9.4 0,-8.1C0.6,-9.4 2.4,-10.3 3.8,-8.6C6.2,-5.6 2.6,-2.4 0,0Z" transform="rotate(96)"/><path d="M0,0C-2.6,-2.4 -6.2,-5.6 -3.8,-8.6C-2.4,-10.3 -0.6,-9.4 0,-8.1C0.6,-9.4 2.4,-10.3 3.8,-8.6C6.2,-5.6 2.6,-2.4 0,0Z" transform="rotate(168)"/><path d="M0,0C-2.6,-2.4 -6.2,-5.6 -3.8,-8.6C-2.4,-10.3 -0.6,-9.4 0,-8.1C0.6,-9.4 2.4,-10.3 3.8,-8.6C6.2,-5.6 2.6,-2.4 0,0Z" transform="rotate(240)"/><path d="M0,0C-2.6,-2.4 -6.2,-5.6 -3.8,-8.6C-2.4,-10.3 -0.6,-9.4 0,-8.1C0.6,-9.4 2.4,-10.3 3.8,-8.6C6.2,-5.6 2.6,-2.4 0,0Z" transform="rotate(312)"/><circle r="1.5" fill="#8E1548" opacity="0.85"/><g fill="#FFE9A8"><circle cx="1.0" cy="1.7" r="0.5"/><circle cx="-1.3" cy="1.5" r="0.5"/><circle cx="-1.8" cy="-0.8" r="0.5"/><circle cx="0.2" cy="-2.0" r="0.5"/><circle cx="2.0" cy="-0.4" r="0.5"/></g></symbol><symbol id="f2" viewBox="-10 -10 20 20"><path d="M0,0C-2.6,-2.4 -6.2,-5.6 -3.8,-8.6C-2.4,-10.3 -0.6,-9.4 0,-8.1C0.6,-9.4 2.4,-10.3 3.8,-8.6C6.2,-5.6 2.6,-2.4 0,0Z" transform="rotate(48)"/><path d="M0,0C-2.6,-2.4 -6.2,-5.6 -3.8,-8.6C-2.4,-10.3 -0.6,-9.4 0,-8.1C0.6,-9.4 2.4,-10.3 3.8,-8.6C6.2,-5.6 2.6,-2.4 0,0Z" transform="rotate(120)"/><path d="M0,0C-2.6,-2.4 -6.2,-5.6 -3.8,-8.6C-2.4,-10.3 -0.6,-9.4 0,-8.1C0.6,-9.4 2.4,-10.3 3.8,-8.6C6.2,-5.6 2.6,-2.4 0,0Z" transform="rotate(192)"/><path d="M0,0C-2.6,-2.4 -6.2,-5.6 -3.8,-8.6C-2.4,-10.3 -0.6,-9.4 0,-8.1C0.6,-9.4 2.4,-10.3 3.8,-8.6C6.2,-5.6 2.6,-2.4 0,0Z" transform="rotate(264)"/><path d="M0,0C-2.6,-2.4 -6.2,-5.6 -3.8,-8.6C-2.4,-10.3 -0.6,-9.4 0,-8.1C0.6,-9.4 2.4,-10.3 3.8,-8.6C6.2,-5.6 2.6,-2.4 0,0Z" transform="rotate(336)"/><circle r="1.5" fill="#8E1548" opacity="0.85"/><g fill="#FFE9A8"><circle cx="0.2" cy="2.0" r="0.5"/><circle cx="-1.8" cy="0.8" r="0.5"/><circle cx="-1.3" cy="-1.5" r="0.5"/><circle cx="1.0" cy="-1.7" r="0.5"/><circle cx="2.0" cy="0.4" r="0.5"/></g></symbol><symbol id="fo" viewBox="-10 -10 20 20"><path d="M0,0C-2.6,-2.4 -6.2,-5.6 -3.8,-8.6C-2.4,-10.3 -0.6,-9.4 0,-8.1C0.6,-9.4 2.4,-10.3 3.8,-8.6C6.2,-5.6 2.6,-2.4 0,0Z" transform="rotate(12)" stroke="#E2C27A" stroke-width="0.9" stroke-linejoin="round"/><path d="M0,0C-2.6,-2.4 -6.2,-5.6 -3.8,-8.6C-2.4,-10.3 -0.6,-9.4 0,-8.1C0.6,-9.4 2.4,-10.3 3.8,-8.6C6.2,-5.6 2.6,-2.4 0,0Z" transform="rotate(84)" stroke="#E2C27A" stroke-width="0.9" stroke-linejoin="round"/><path d="M0,0C-2.6,-2.4 -6.2,-5.6 -3.8,-8.6C-2.4,-10.3 -0.6,-9.4 0,-8.1C0.6,-9.4 2.4,-10.3 3.8,-8.6C6.2,-5.6 2.6,-2.4 0,0Z" transform="rotate(156)" stroke="#E2C27A" stroke-width="0.9" stroke-linejoin="round"/><path d="M0,0C-2.6,-2.4 -6.2,-5.6 -3.8,-8.6C-2.4,-10.3 -0.6,-9.4 0,-8.1C0.6,-9.4 2.4,-10.3 3.8,-8.6C6.2,-5.6 2.6,-2.4 0,0Z" transform="rotate(228)" stroke="#E2C27A" stroke-width="0.9" stroke-linejoin="round"/><path d="M0,0C-2.6,-2.4 -6.2,-5.6 -3.8,-8.6C-2.4,-10.3 -0.6,-9.4 0,-8.1C0.6,-9.4 2.4,-10.3 3.8,-8.6C6.2,-5.6 2.6,-2.4 0,0Z" transform="rotate(300)" stroke="#E2C27A" stroke-width="0.9" stroke-linejoin="round"/><circle r="1.4" fill="#E2C27A" opacity="0.85"/><g fill="#E2C27A"><circle cx="1.3" cy="1.5" r="0.5"/><circle cx="-1.0" cy="1.7" r="0.5"/><circle cx="-2.0" cy="-0.4" r="0.5"/><circle cx="-0.2" cy="-2.0" r="0.5"/><circle cx="1.8" cy="-0.8" r="0.5"/></g></symbol><style>@keyframes rise{from{opacity:0;transform:translateY(6px)}to{opacity:1;transform:translateY(0)}}.rise{animation:rise .9s ease-out .1s both}
      @keyframes fA{0%{transform:translate(0,0);opacity:0}5%{opacity:1}25%{transform:translate(-40px,70px)}50%{transform:translate(-110px,140px)}75%{transform:translate(-170px,215px)}92%{opacity:.9}100%{transform:translate(-240px,320px);opacity:0}}
      @keyframes fB{0%{transform:translate(0,0);opacity:0}5%{opacity:1}30%{transform:translate(-70px,95px)}55%{transform:translate(-90px,170px)}80%{transform:translate(-190px,250px)}92%{opacity:.9}100%{transform:translate(-230px,320px);opacity:0}}
      @keyframes fC{0%{transform:translate(0,0);opacity:0}5%{opacity:1}20%{transform:translate(-18px,62px)}45%{transform:translate(-72px,140px)}70%{transform:translate(-96px,220px)}92%{opacity:.9}100%{transform:translate(-150px,320px);opacity:0}}@keyframes bloom{from{opacity:0}to{opacity:1}}.bd0{animation:bloom .9s ease-out 1.10s both}.bd1{animation:bloom .9s ease-out 1.38s both}.bd2{animation:bloom .9s ease-out 1.66s both}.bd3{animation:bloom .9s ease-out 1.94s both}</style>
  </defs>
  <rect width="1000" height="66" fill="#0D1117"/>
  <g clip-path="url(#card)"><g mask="url(#feathV)"><g mask="url(#feathH)"><g transform="translate(1000,0) scale(1.0) translate(-1000,0)"><g fill="url(#gold)"><path d="M1014.4,28.5L1005.8,27.9L997.2,27.3L988.7,27.0L980.2,26.5L971.6,26.5L963.1,26.5L954.6,27.1L946.1,27.5L937.6,28.3L929.0,28.4L920.5,28.9L912.0,29.7L903.6,30.7L895.1,31.3L886.6,32.2L878.1,33.1L869.6,33.8L861.0,34.2L852.5,34.8L844.0,35.8L835.5,36.6L826.9,37.3L818.4,38.1L809.8,39.0L801.2,39.6L792.6,40.0L784.0,40.9L775.4,41.5L766.7,41.9L757.9,41.9L757.9,41.9L766.6,42.5L775.3,43.0L784.0,43.6L792.7,44.1L801.4,44.1L810.0,44.0L818.7,44.0L827.3,43.8L835.9,43.4L844.5,43.0L853.1,42.6L861.6,41.9L870.2,40.8L878.7,40.2L887.2,39.7L895.7,39.2L904.2,38.4L912.6,38.1L921.1,37.7L929.6,37.2L938.0,36.4L946.4,36.4L954.8,36.3L963.2,36.4L971.6,36.3L980.0,36.3L988.4,36.2L996.8,36.5L1005.2,36.8L1013.6,37.5Z"/><path d="M920.1,32.0L918.6,34.3L916.9,36.4L915.2,38.4L913.6,40.4L911.7,42.1L909.9,43.9L907.9,45.4L905.8,47.0L903.7,48.5L901.4,49.8L899.1,51.1L896.7,52.2L894.3,53.3L891.9,54.6L889.4,55.7L887.1,57.1L884.6,58.2L882.1,59.4L879.5,60.4L877.0,61.6L874.6,63.1L872.2,64.6L869.9,66.0L867.5,67.5L865.2,69.1L863.1,70.9L861.2,73.0L859.3,75.1L857.5,77.2L855.8,79.5L855.8,79.5L857.8,77.5L859.9,75.7L862.2,74.1L864.5,72.8L866.8,71.4L869.1,69.9L871.4,68.5L873.8,67.3L876.2,66.2L878.7,65.2L881.2,64.1L883.6,62.8L886.1,61.7L888.6,60.6L891.2,59.7L893.8,58.6L896.3,57.6L898.8,56.4L901.2,55.0L903.6,53.7L906.0,52.2L908.4,50.8L910.7,49.4L913.0,47.7L915.2,46.0L917.2,43.9L919.4,42.0L921.2,39.7L922.8,37.1L924.4,34.5Z"/><path d="M840.7,38.0L838.6,36.4L836.4,34.9L834.1,33.7L831.7,32.8L829.4,31.9L827.0,31.2L824.6,30.5L822.2,29.9L819.8,29.6L817.4,29.2L814.9,29.1L812.5,28.9L810.1,28.9L807.6,28.7L805.2,28.6L802.8,28.4L800.4,28.4L797.9,28.3L795.5,28.3L793.1,28.2L790.7,28.1L788.4,27.9L786.0,27.6L783.7,27.2L781.3,26.9L779.0,26.4L776.6,26.1L774.2,25.6L771.9,24.9L769.5,23.9L769.5,23.9L771.7,25.2L773.9,26.3L776.2,27.4L778.4,28.5L780.8,29.2L783.2,29.8L785.6,30.3L788.0,30.6L790.5,30.9L792.9,31.2L795.3,31.4L797.8,31.7L800.2,31.9L802.6,32.1L805.0,32.1L807.4,32.2L809.8,32.3L812.2,32.6L814.5,32.9L816.8,33.4L819.1,33.7L821.3,34.3L823.6,34.7L825.8,35.3L827.9,36.0L830.0,36.9L832.0,37.9L834.1,39.0L836.2,40.1L838.2,41.4Z"/><path d="M807.7,40.1L804.8,38.1L801.9,36.1L798.8,34.3L795.9,32.4L792.7,30.8L789.6,29.3L786.3,27.9L783.2,26.3L780.1,24.7L777.0,23.2L773.7,21.9L770.5,20.5L767.2,19.2L763.9,18.0L760.6,16.8L757.3,15.7L754.0,14.5L750.8,13.1L747.5,11.9L744.3,10.5L741.1,9.1L737.8,7.8L734.6,6.4L731.3,5.1L728.1,3.7L724.8,2.3L721.6,1.0L718.3,-0.4L715.1,-1.9L711.9,-3.6L711.9,-3.6L714.9,-1.6L717.9,0.3L720.9,2.2L724.0,4.0L727.1,5.8L730.3,7.3L733.5,8.9L736.7,10.4L739.9,11.9L743.2,13.2L746.4,14.6L749.6,15.9L752.9,17.2L756.1,18.6L759.3,20.1L762.5,21.6L765.7,23.0L768.9,24.4L772.0,25.8L775.2,27.2L778.4,28.5L781.5,29.9L784.7,31.2L787.7,32.9L790.7,34.6L793.7,36.3L796.8,37.9L799.7,39.6L802.7,41.3L805.6,43.2Z"/><path d="M877.8,62.2L876.6,62.5L875.4,62.7L874.3,63.0L873.1,63.1L871.9,63.3L870.7,63.4L869.5,63.7L868.4,63.9L867.2,64.1L865.9,64.2L864.7,64.3L863.5,64.4L862.3,64.6L861.1,64.8L859.9,64.9L858.7,65.1L857.5,65.2L856.2,65.3L855.0,65.4L853.8,65.6L852.6,65.7L851.3,65.9L850.1,66.0L848.9,66.3L847.6,66.4L846.4,66.7L845.2,67.1L844.0,67.5L842.8,67.9L841.6,68.2L841.6,68.2L842.8,68.1L844.1,68.1L845.3,68.1L846.6,68.1L847.8,68.0L849.1,67.8L850.3,67.8L851.5,67.7L852.7,67.6L854.0,67.5L855.2,67.4L856.4,67.3L857.6,67.2L858.9,67.1L860.1,67.1L861.3,67.0L862.5,66.9L863.8,66.9L865.0,66.7L866.2,66.6L867.4,66.4L868.7,66.3L869.9,66.2L871.1,66.1L872.3,65.9L873.5,65.6L874.7,65.3L876.0,65.1L877.2,64.7L878.4,64.5Z"/><path d="M777.8,26.8L776.7,28.3L775.5,29.5L774.3,30.6L773.1,31.5L771.9,32.3L770.6,33.1L769.3,33.7L767.9,34.2L766.4,34.6L765.0,34.9L763.4,35.2L761.9,35.4L760.3,35.5L758.7,35.6L757.1,35.7L755.5,35.8L753.8,35.9L752.2,35.9L750.5,36.0L748.9,36.2L747.3,36.4L745.6,36.6L744.0,36.9L742.4,37.4L740.9,37.9L739.4,38.6L738.0,39.5L736.7,40.5L735.4,41.6L734.2,42.8L734.2,42.8L735.5,41.8L737.0,41.0L738.4,40.3L739.9,39.8L741.4,39.4L742.9,39.0L744.4,38.7L745.9,38.4L747.5,38.2L749.1,38.0L750.7,38.0L752.3,37.9L753.9,37.9L755.5,37.8L757.2,37.8L758.8,37.8L760.5,37.7L762.1,37.5L763.8,37.4L765.4,37.2L767.0,36.8L768.5,36.4L770.1,35.9L771.6,35.3L773.1,34.5L774.6,33.5L775.9,32.4L777.2,31.2L778.4,29.6L779.5,28.0Z"/><path d="M898.6,52.7L897.3,53.3L896.2,54.0L895.0,54.7L894.0,55.5L892.9,56.3L891.9,57.2L891.0,58.1L890.2,59.1L889.3,60.1L888.6,61.2L887.8,62.2L887.0,63.2L886.3,64.3L885.5,65.3L884.9,66.4L884.2,67.5L883.5,68.6L882.8,69.6L882.1,70.7L881.4,71.8L880.6,72.8L879.9,73.8L879.1,74.8L878.4,75.8L877.5,76.8L876.7,77.7L876.0,78.8L875.1,79.7L874.2,80.7L873.2,81.6L873.2,81.6L874.4,80.9L875.5,80.2L876.6,79.4L877.6,78.6L878.6,77.8L879.5,76.8L880.4,75.9L881.2,74.8L882.0,73.8L882.8,72.8L883.6,71.8L884.3,70.7L885.0,69.6L885.8,68.6L886.6,67.6L887.4,66.6L888.1,65.6L888.8,64.5L889.5,63.5L890.3,62.5L891.2,61.7L892.0,60.7L892.8,59.9L893.7,59.0L894.6,58.2L895.4,57.4L896.4,56.6L897.4,55.8L898.4,55.2L899.5,54.5Z"/><path d="M818.4,30.8L817.5,31.6L816.7,32.4L815.8,33.2L814.9,34.1L814.0,34.8L813.2,35.7L812.3,36.5L811.5,37.3L810.6,38.1L809.7,38.9L808.8,39.8L808.0,40.6L807.1,41.4L806.2,42.2L805.4,43.1L804.5,43.9L803.7,44.8L802.8,45.6L802.0,46.5L801.1,47.3L800.3,48.2L799.3,49.0L798.5,49.8L797.6,50.7L796.8,51.5L795.9,52.4L795.2,53.4L794.4,54.4L793.6,55.3L792.8,56.3L792.8,56.3L793.8,55.5L794.8,54.8L795.8,54.1L796.9,53.4L797.8,52.6L798.7,51.8L799.6,51.0L800.5,50.2L801.4,49.4L802.3,48.6L803.2,47.8L804.1,47.0L805.0,46.2L805.9,45.4L806.8,44.6L807.7,43.8L808.6,43.1L809.5,42.2L810.4,41.4L811.3,40.6L812.1,39.8L813.0,39.0L813.9,38.1L814.8,37.3L815.7,36.6L816.5,35.7L817.4,34.9L818.2,34.1L819.1,33.3L819.9,32.4Z"/><path d="M748.9,12.9L746.4,12.7L743.9,12.7L741.6,12.9L739.4,13.4L737.3,14.1L735.3,15.0L733.4,16.0L731.5,17.0L729.7,18.2L728.0,19.5L726.4,20.9L724.9,22.4L723.4,24.0L722.0,25.6L720.5,27.1L719.0,28.7L717.6,30.3L716.1,31.9L714.7,33.5L713.2,35.0L711.7,36.5L710.2,37.9L708.6,39.2L706.9,40.5L705.2,41.6L703.5,42.7L701.7,43.7L699.8,44.6L697.7,45.3L695.5,45.8L695.5,45.8L697.8,45.6L699.9,45.2L702.1,44.6L704.1,43.9L706.0,42.9L707.8,41.8L709.6,40.6L711.3,39.2L712.9,37.8L714.5,36.3L716.0,34.8L717.5,33.3L719.0,31.7L720.5,30.1L722.0,28.5L723.4,26.9L724.9,25.4L726.4,24.0L728.0,22.7L729.6,21.4L731.1,20.1L732.7,18.9L734.4,17.9L736.2,17.0L738.0,16.3L740.0,15.8L742.0,15.4L744.1,15.1L746.3,14.9L748.7,15.0Z"/><path d="M729.9,4.9L728.5,4.5L727.0,4.3L725.5,4.1L724.1,4.0L722.6,3.9L721.2,4.0L719.7,4.1L718.3,4.2L716.9,4.3L715.5,4.5L714.0,4.8L712.6,5.1L711.2,5.3L709.8,5.6L708.4,5.9L707.0,6.2L705.6,6.5L704.2,6.8L702.9,7.2L701.5,7.5L700.1,7.7L698.7,7.9L697.3,8.1L695.9,8.4L694.5,8.5L693.1,8.7L691.6,9.0L690.2,9.2L688.8,9.3L687.3,9.3L687.3,9.3L688.8,9.5L690.2,9.7L691.7,9.9L693.1,10.0L694.6,10.0L696.0,9.9L697.5,9.8L698.9,9.6L700.4,9.4L701.8,9.1L703.2,8.9L704.6,8.7L706.0,8.5L707.4,8.2L708.8,7.9L710.2,7.7L711.6,7.5L713.0,7.2L714.4,7.1L715.8,6.9L717.2,6.7L718.5,6.6L719.9,6.4L721.3,6.4L722.6,6.4L724.0,6.3L725.4,6.3L726.8,6.4L728.2,6.5L729.6,6.6Z"/></g><g fill="none" stroke="#0D1117" stroke-width="0.9" opacity="0.55"><polyline points="988.6,29.0 980.1,28.7 971.6,28.7 963.1,28.7 954.6,29.1 946.1,29.5 937.7,30.1 929.2,30.4 920.7,30.9 912.2,31.6 903.7,32.4 895.2,33.1 886.7,33.9 878.2,34.7 869.7,35.4 861.2,35.9 852.6,36.6 844.1,37.4 835.6,38.1 827.0,38.8 818.5,39.5 809.9,40.1 801.3,40.6" stroke-dasharray="9 6 11 3"/><polyline points="988.5,33.4 980.1,33.3 971.6,33.3 963.2,33.4 954.7,33.4 946.3,33.7 937.8,33.9 929.4,34.5 920.9,35.0 912.5,35.5 904.0,36.0 895.5,36.7 887.0,37.4 878.5,38.0 870.0,38.7 861.5,39.5 852.9,40.2 844.4,40.8 835.8,41.3 827.2,41.8 818.6,42.2 810.0,42.5 801.3,42.7" stroke-dasharray="10 4 9 4"/><polyline points="918.4,41.1 916.4,43.1 914.4,45.1 912.3,46.8 910.1,48.5 907.8,50.0 905.5,51.4 903.1,52.8 900.7,54.1 898.3,55.4 895.9,56.6 893.3,57.7 890.8,58.8 888.3,59.8 885.8,60.9 883.3,62.0 880.8,63.3 878.3,64.4 875.9,65.5 873.4,66.7 871.0,68.0 868.7,69.4 866.5,70.9" stroke-dasharray="6 4 10 2"/><polyline points="874.6,64.4 873.4,64.6 872.2,64.8 871.0,65.1 869.7,65.2 868.5,65.4 867.3,65.5 866.1,65.7 864.9,65.8 863.7,65.9 862.5,66.0 861.2,66.1 860.0,66.2 858.8,66.3 857.6,66.4 856.3,66.5 855.1,66.6 853.9,66.7 852.7,66.8 851.4,67.0 850.2,67.1 849.0,67.2 847.8,67.4" stroke-dasharray="6 7 9 2"/><polyline points="896.1,56.2 895.1,56.9 894.2,57.8 893.3,58.6 892.4,59.5 891.6,60.4 890.7,61.3 889.9,62.2 889.1,63.2 888.4,64.2 887.7,65.3 886.9,66.3 886.2,67.3 885.4,68.4 884.7,69.4 884.0,70.5 883.2,71.5 882.5,72.6 881.7,73.6 880.9,74.6 880.1,75.6 879.2,76.6 878.4,77.5" stroke-dasharray="12 7 9 4"/><polyline points="833.3,35.4 831.0,34.4 828.8,33.6 826.5,32.8 824.2,32.2 821.9,31.7 819.5,31.2 817.1,30.9 814.8,30.6 812.4,30.4 810.0,30.3 807.6,30.1 805.1,30.0 802.7,29.9 800.3,29.8 797.9,29.7 795.4,29.6 793.0,29.4 790.6,29.2 788.2,29.0 785.8,28.6 783.5,28.3 781.1,27.8" stroke-dasharray="7 5 14 5"/><polyline points="774.8,31.2 773.6,32.2 772.3,33.0 770.9,33.8 769.5,34.4 768.1,34.9 766.6,35.3 765.1,35.6 763.5,35.9 762.0,36.1 760.4,36.2 758.8,36.3 757.1,36.4 755.5,36.5 753.9,36.5 752.2,36.6 750.6,36.6 749.0,36.8 747.3,37.0 745.7,37.2 744.1,37.5 742.6,37.9 741.1,38.4" stroke-dasharray="9 3 9 2"/><polyline points="817.1,34.6 816.2,35.4 815.4,36.2 814.5,37.0 813.6,37.8 812.7,38.7 811.8,39.5 811.0,40.3 810.1,41.1 809.2,41.9 808.3,42.7 807.4,43.5 806.6,44.3 805.7,45.1 804.7,45.9 803.9,46.8 803.0,47.5 802.1,48.4 801.2,49.2 800.3,50.0 799.4,50.8 798.5,51.6 797.6,52.4" stroke-dasharray="5 4 9 5"/><polyline points="798.0,35.8 795.0,34.0 791.9,32.4 788.8,30.8 785.7,29.3 782.5,27.8 779.4,26.3 776.2,24.9 773.0,23.5 769.8,22.1 766.6,20.8 763.3,19.5 760.1,18.2 756.8,16.9 753.6,15.6 750.3,14.3 747.1,13.0 743.8,11.6 740.6,10.3 737.3,8.9 734.1,7.5 730.9,6.0 727.7,4.5" stroke-dasharray="10 4 15 4"/><polyline points="725.5,5.2 724.0,5.1 722.6,5.1 721.2,5.1 719.8,5.2 718.4,5.3 717.0,5.5 715.6,5.7 714.2,5.9 712.8,6.1 711.4,6.4 710.0,6.6 708.6,6.9 707.2,7.2 705.8,7.5 704.4,7.7 703.0,8.0 701.6,8.3 700.2,8.5 698.8,8.7 697.4,8.9 696.0,9.1 694.5,9.2" stroke-dasharray="6 4 10 4"/><polyline points="741.9,15.0 739.9,15.5 737.9,16.0 736.0,16.7 734.3,17.6 732.6,18.7 730.9,19.8 729.3,21.1 727.8,22.4 726.2,23.8 724.7,25.2 723.2,26.7 721.7,28.3 720.3,29.9 718.8,31.5 717.3,33.1 715.8,34.6 714.3,36.1 712.7,37.6 711.1,39.0 709.5,40.4 707.7,41.6 705.9,42.7" stroke-dasharray="6 6 17 4"/></g><g opacity="0.42" filter="url(#wash)"><circle cx="890" cy="36" r="14" fill="#F19BC0"/><circle cx="758" cy="42" r="14" fill="#F7B6D0"/><circle cx="899" cy="53" r="17" fill="#F7B6D0"/><circle cx="876" cy="64" r="17" fill="#E97AAE"/><circle cx="856" cy="79" r="17" fill="#E97AAE"/><circle cx="865" cy="66" r="19" fill="#E97AAE"/><circle cx="854" cy="66" r="19" fill="#F7B6D0"/><circle cx="880" cy="75" r="19" fill="#E97AAE"/><circle cx="770" cy="24" r="17" fill="#F19BC0"/><circle cx="751" cy="37" r="19" fill="#F19BC0"/><circle cx="734" cy="43" r="19" fill="#F7B6D0"/><circle cx="812" cy="39" r="19" fill="#F19BC0"/><circle cx="799" cy="51" r="19" fill="#F7B6D0"/><circle cx="793" cy="56" r="19" fill="#E97AAE"/><circle cx="767" cy="21" r="17" fill="#FBD3E3"/><circle cx="742" cy="11" r="17" fill="#E97AAE"/><circle cx="712" cy="-4" r="17" fill="#E97AAE"/><circle cx="716" cy="6" r="19" fill="#F19BC0"/><circle cx="695" cy="9" r="19" fill="#E97AAE"/><circle cx="687" cy="9" r="19" fill="#FBD3E3"/><circle cx="725" cy="24" r="19" fill="#F7B6D0"/><circle cx="696" cy="46" r="19" fill="#F19BC0"/></g><g class="bd1"><use href="#f2" x="885" y="30" width="11" height="11" fill="#F5A3C8" opacity="0.94"/><use href="#fo" x="877" y="29" width="12" height="12" fill="#2A1622" opacity="0.92"/><circle cx="882" cy="38" r="1.4" fill="#DC4A94"/><circle cx="882" cy="38" r="2.3" fill="none" stroke="#E2C27A" stroke-width="0.7" opacity="0.7"/><circle cx="884" cy="41" r="1.9" fill="#DC4A94"/><circle cx="884" cy="41" r="2.8" fill="none" stroke="#E2C27A" stroke-width="0.7" opacity="0.7"/><use href="#f0" x="749" y="37" width="11" height="11" fill="#EC78B0" opacity="0.94"/><use href="#f1" x="759" y="35" width="8" height="8" fill="#EC78B0" opacity="0.94"/><use href="#f0" x="754" y="38" width="9" height="9" fill="#FBC6DC" opacity="0.94"/><circle cx="764" cy="42" r="2.2" fill="#DC4A94"/><circle cx="764" cy="42" r="3.1" fill="none" stroke="#E2C27A" stroke-width="0.7" opacity="0.7"/><circle cx="765" cy="52" r="1.4" fill="#DC4A94"/><circle cx="765" cy="52" r="2.3" fill="none" stroke="#E2C27A" stroke-width="0.7" opacity="0.7"/></g><g class="bd2"><use href="#f1" x="898" y="47" width="10" height="10" fill="#DC4A94" opacity="0.94"/><use href="#fo" x="889" y="57" width="10" height="10" fill="#2A1622" opacity="0.92"/><use href="#f0" x="886" y="56" width="8" height="8" fill="#C22A78" opacity="0.94"/><circle cx="899" cy="67" r="2.0" fill="#DC4A94"/><circle cx="899" cy="67" r="2.9" fill="none" stroke="#E2C27A" stroke-width="0.7" opacity="0.7"/><circle cx="889" cy="51" r="2.1" fill="#DC4A94"/><circle cx="889" cy="51" r="3.0" fill="none" stroke="#E2C27A" stroke-width="0.7" opacity="0.7"/><use href="#f1" x="874" y="62" width="9" height="9" fill="#F5A3C8" opacity="0.94"/><use href="#f2" x="877" y="51" width="8" height="8" fill="#C22A78" opacity="0.94"/><use href="#f0" x="873" y="63" width="10" height="10" fill="#C22A78" opacity="0.94"/><circle cx="882" cy="57" r="2.2" fill="#DC4A94"/><circle cx="882" cy="57" r="3.1" fill="none" stroke="#E2C27A" stroke-width="0.7" opacity="0.7"/><use href="#f2" x="853" y="75" width="9" height="9" fill="#FBC6DC" opacity="0.94"/><use href="#f0" x="847" y="76" width="8" height="8" fill="#F5A3C8" opacity="0.94"/><use href="#f1" x="853" y="70" width="11" height="11" fill="#C22A78" opacity="0.94"/><circle cx="846" cy="79" r="2.0" fill="#DC4A94"/><circle cx="846" cy="79" r="2.9" fill="none" stroke="#E2C27A" stroke-width="0.7" opacity="0.7"/><use href="#fo" x="764" y="20" width="10" height="10" fill="#2A1622" opacity="0.92"/><use href="#f2" x="760" y="27" width="8" height="8" fill="#FBC6DC" opacity="0.94"/><use href="#f1" x="758" y="21" width="12" height="12" fill="#DC4A94" opacity="0.94"/><circle cx="766" cy="31" r="1.7" fill="#DC4A94"/><circle cx="766" cy="31" r="2.6" fill="none" stroke="#E2C27A" stroke-width="0.7" opacity="0.7"/><circle cx="763" cy="37" r="1.8" fill="#DC4A94"/><circle cx="763" cy="37" r="2.7" fill="none" stroke="#E2C27A" stroke-width="0.7" opacity="0.7"/><use href="#f0" x="764" y="17" width="8" height="8" fill="#EC78B0" opacity="0.94"/><use href="#f1" x="761" y="16" width="11" height="11" fill="#EC78B0" opacity="0.94"/><circle cx="780" cy="26" r="1.7" fill="#DC4A94"/><circle cx="780" cy="26" r="2.6" fill="none" stroke="#E2C27A" stroke-width="0.7" opacity="0.7"/><use href="#f0" x="739" y="5" width="11" height="11" fill="#FBC6DC" opacity="0.94"/><use href="#f2" x="736" y="13" width="10" height="10" fill="#DC4A94" opacity="0.94"/><use href="#f0" x="733" y="3" width="8" height="8" fill="#FBC6DC" opacity="0.94"/><use href="#f1" x="740" y="-0" width="8" height="8" fill="#C22A78" opacity="0.94"/><circle cx="745" cy="20" r="2.2" fill="#DC4A94"/><circle cx="745" cy="20" r="3.1" fill="none" stroke="#E2C27A" stroke-width="0.7" opacity="0.7"/><circle cx="732" cy="4" r="1.5" fill="#DC4A94"/><circle cx="732" cy="4" r="2.4" fill="none" stroke="#E2C27A" stroke-width="0.7" opacity="0.7"/><use href="#f2" x="701" y="-16" width="12" height="12" fill="#C22A78" opacity="0.94"/><use href="#fo" x="703" y="0" width="12" height="12" fill="#2A1622" opacity="0.92"/><use href="#f2" x="703" y="-9" width="10" height="10" fill="#EC78B0" opacity="0.94"/><circle cx="711" cy="9" r="1.8" fill="#DC4A94"/><circle cx="711" cy="9" r="2.7" fill="none" stroke="#E2C27A" stroke-width="0.7" opacity="0.7"/></g><g class="bd3"><use href="#fo" x="847" y="60" width="12" height="12" fill="#2A1622" opacity="0.92"/><use href="#fo" x="861" y="69" width="12" height="12" fill="#2A1622" opacity="0.92"/><use href="#f1" x="863" y="60" width="9" height="9" fill="#F5A3C8" opacity="0.94"/><circle cx="860" cy="57" r="1.8" fill="#DC4A94"/><circle cx="860" cy="57" r="2.7" fill="none" stroke="#E2C27A" stroke-width="0.7" opacity="0.7"/><use href="#f2" x="852" y="62" width="9" height="9" fill="#EC78B0" opacity="0.94"/><use href="#f0" x="852" y="67" width="8" height="8" fill="#FFE6F0" opacity="0.94"/><use href="#f2" x="848" y="62" width="10" height="10" fill="#DC4A94" opacity="0.94"/><use href="#fo" x="853" y="63" width="8" height="8" fill="#2A1622" opacity="0.92"/><circle cx="856" cy="76" r="2.2" fill="#DC4A94"/><circle cx="856" cy="76" r="3.1" fill="none" stroke="#E2C27A" stroke-width="0.7" opacity="0.7"/><circle cx="854" cy="75" r="2.0" fill="#DC4A94"/><circle cx="854" cy="75" r="2.9" fill="none" stroke="#E2C27A" stroke-width="0.7" opacity="0.7"/><use href="#f2" x="873" y="71" width="11" height="11" fill="#FBC6DC" opacity="0.94"/><use href="#f2" x="869" y="67" width="8" height="8" fill="#FFE6F0" opacity="0.94"/><circle cx="887" cy="89" r="2.1" fill="#DC4A94"/><circle cx="887" cy="89" r="3.0" fill="none" stroke="#E2C27A" stroke-width="0.7" opacity="0.7"/><circle cx="865" cy="81" r="2.1" fill="#DC4A94"/><circle cx="865" cy="81" r="3.0" fill="none" stroke="#E2C27A" stroke-width="0.7" opacity="0.7"/><use href="#f1" x="746" y="24" width="10" height="10" fill="#EC78B0" opacity="0.94"/><use href="#f1" x="757" y="30" width="8" height="8" fill="#C22A78" opacity="0.94"/><circle cx="760" cy="49" r="1.4" fill="#DC4A94"/><circle cx="760" cy="49" r="2.3" fill="none" stroke="#E2C27A" stroke-width="0.7" opacity="0.7"/><circle cx="747" cy="46" r="1.7" fill="#DC4A94"/><circle cx="747" cy="46" r="2.6" fill="none" stroke="#E2C27A" stroke-width="0.7" opacity="0.7"/><use href="#f0" x="729" y="38" width="10" height="10" fill="#C22A78" opacity="0.94"/><use href="#f0" x="730" y="39" width="8" height="8" fill="#F5A3C8" opacity="0.94"/><use href="#f1" x="737" y="48" width="9" height="9" fill="#FBC6DC" opacity="0.94"/><circle cx="742" cy="53" r="1.8" fill="#DC4A94"/><circle cx="742" cy="53" r="2.7" fill="none" stroke="#E2C27A" stroke-width="0.7" opacity="0.7"/><circle cx="744" cy="54" r="1.8" fill="#DC4A94"/><circle cx="744" cy="54" r="2.7" fill="none" stroke="#E2C27A" stroke-width="0.7" opacity="0.7"/><use href="#f0" x="808" y="36" width="12" height="12" fill="#EC78B0" opacity="0.94"/><use href="#fo" x="808" y="22" width="12" height="12" fill="#2A1622" opacity="0.92"/><use href="#f2" x="808" y="35" width="10" height="10" fill="#FBC6DC" opacity="0.94"/><use href="#f1" x="808" y="37" width="10" height="10" fill="#FBC6DC" opacity="0.94"/><circle cx="812" cy="26" r="1.8" fill="#DC4A94"/><circle cx="812" cy="26" r="2.7" fill="none" stroke="#E2C27A" stroke-width="0.7" opacity="0.7"/><circle cx="797" cy="40" r="2.1" fill="#DC4A94"/><circle cx="797" cy="40" r="3.0" fill="none" stroke="#E2C27A" stroke-width="0.7" opacity="0.7"/><use href="#f0" x="797" y="36" width="9" height="9" fill="#C22A78" opacity="0.94"/><use href="#f1" x="801" y="42" width="11" height="11" fill="#F5A3C8" opacity="0.94"/><circle cx="807" cy="47" r="1.9" fill="#DC4A94"/><circle cx="807" cy="47" r="2.8" fill="none" stroke="#E2C27A" stroke-width="0.7" opacity="0.7"/><use href="#f0" x="792" y="58" width="12" height="12" fill="#DC4A94" opacity="0.94"/><use href="#f0" x="797" y="61" width="8" height="8" fill="#F5A3C8" opacity="0.94"/><circle cx="792" cy="47" r="2.1" fill="#DC4A94"/><circle cx="792" cy="47" r="3.0" fill="none" stroke="#E2C27A" stroke-width="0.7" opacity="0.7"/><circle cx="784" cy="56" r="2.0" fill="#DC4A94"/><circle cx="784" cy="56" r="2.9" fill="none" stroke="#E2C27A" stroke-width="0.7" opacity="0.7"/><use href="#f0" x="712" y="6" width="9" height="9" fill="#EC78B0" opacity="0.94"/><use href="#fo" x="713" y="6" width="9" height="9" fill="#2A1622" opacity="0.92"/><circle cx="719" cy="15" r="1.6" fill="#DC4A94"/><circle cx="719" cy="15" r="2.5" fill="none" stroke="#E2C27A" stroke-width="0.7" opacity="0.7"/><circle cx="716" cy="15" r="1.7" fill="#DC4A94"/><circle cx="716" cy="15" r="2.6" fill="none" stroke="#E2C27A" stroke-width="0.7" opacity="0.7"/><use href="#f1" x="687" y="3" width="11" height="11" fill="#DC4A94" opacity="0.94"/><use href="#f2" x="690" y="3" width="11" height="11" fill="#F5A3C8" opacity="0.94"/><use href="#fo" x="680" y="-1" width="10" height="10" fill="#2A1622" opacity="0.92"/><circle cx="688" cy="22" r="1.9" fill="#DC4A94"/><circle cx="688" cy="22" r="2.8" fill="none" stroke="#E2C27A" stroke-width="0.7" opacity="0.7"/><circle cx="690" cy="23" r="2.1" fill="#DC4A94"/><circle cx="690" cy="23" r="3.0" fill="none" stroke="#E2C27A" stroke-width="0.7" opacity="0.7"/><use href="#fo" x="691" y="6" width="9" height="9" fill="#2A1622" opacity="0.92"/><use href="#f0" x="688" y="1" width="8" height="8" fill="#EC78B0" opacity="0.94"/><use href="#fo" x="683" y="6" width="8" height="8" fill="#2A1622" opacity="0.92"/><circle cx="684" cy="-4" r="1.4" fill="#DC4A94"/><circle cx="684" cy="-4" r="2.3" fill="none" stroke="#E2C27A" stroke-width="0.7" opacity="0.7"/><circle cx="701" cy="11" r="2.1" fill="#DC4A94"/><circle cx="701" cy="11" r="3.0" fill="none" stroke="#E2C27A" stroke-width="0.7" opacity="0.7"/><use href="#f0" x="722" y="17" width="8" height="8" fill="#F5A3C8" opacity="0.94"/><use href="#fo" x="711" y="10" width="11" height="11" fill="#2A1622" opacity="0.92"/><use href="#fo" x="726" y="22" width="9" height="9" fill="#2A1622" opacity="0.92"/><circle cx="728" cy="35" r="1.6" fill="#DC4A94"/><circle cx="728" cy="35" r="2.5" fill="none" stroke="#E2C27A" stroke-width="0.7" opacity="0.7"/><use href="#fo" x="680" y="36" width="10" height="10" fill="#2A1622" opacity="0.92"/><use href="#fo" x="682" y="49" width="8" height="8" fill="#2A1622" opacity="0.92"/><use href="#f1" x="703" y="37" width="9" height="9" fill="#F5A3C8" opacity="0.94"/><circle cx="687" cy="32" r="2.0" fill="#DC4A94"/><circle cx="687" cy="32" r="2.9" fill="none" stroke="#E2C27A" stroke-width="0.7" opacity="0.7"/></g></g><g transform="translate(734,-17)"><g style="animation:fC 10.4s linear -14.1s infinite"><g><animateTransform attributeName="transform" type="rotate" from="0" to="-360" dur="5.0s" repeatCount="indefinite"/><g><animateTransform attributeName="transform" type="scale" values="1 1;0.3 1;1 1" dur="1.7s" repeatCount="indefinite"/><path d="M0,-5C3.2,-5 4.6,-1 0,5C-4.6,-1 -3.2,-5 0,-5Z" transform="scale(1.03)" fill="#FBC6DC" opacity="0.9"/></g></g></g></g><g transform="translate(559,-8)"><g style="animation:fC 13.6s linear -7.6s infinite"><g><animateTransform attributeName="transform" type="rotate" from="0" to="-360" dur="4.6s" repeatCount="indefinite"/><g><animateTransform attributeName="transform" type="scale" values="1 1;0.3 1;1 1" dur="1.9s" repeatCount="indefinite"/><path d="M0,-5C3.2,-5 4.6,-1 0,5C-4.6,-1 -3.2,-5 0,-5Z" transform="scale(0.99)" fill="#FBC6DC" opacity="0.9"/></g></g></g></g><g transform="translate(714,-17)"><g style="animation:fA 10.6s linear -3.8s infinite"><g><animateTransform attributeName="transform" type="rotate" from="0" to="-360" dur="3.3s" repeatCount="indefinite"/><g><animateTransform attributeName="transform" type="scale" values="1 1;0.3 1;1 1" dur="1.4s" repeatCount="indefinite"/><path d="M0,-5C3.2,-5 4.6,-1 0,5C-4.6,-1 -3.2,-5 0,-5Z" transform="scale(0.87)" fill="#F5A3C8" opacity="0.9"/></g></g></g></g></g></g><g class="rise"><path d="M0,-5C3.2,-5 4.6,-1 0,5C-4.6,-1 -3.2,-5 0,-5Z" transform="translate(42,34) rotate(138) scale(0.82)" fill="#EC78B0" opacity="0.92"/><path d="M0,-5C3.2,-5 4.6,-1 0,5C-4.6,-1 -3.2,-5 0,-5Z" transform="translate(53,35) rotate(295) scale(0.85)" fill="#FBC6DC" opacity="0.92"/><path d="M0,-5C3.2,-5 4.6,-1 0,5C-4.6,-1 -3.2,-5 0,-5Z" transform="translate(67,41) rotate(93) scale(0.83)" fill="#FBC6DC" opacity="0.92"/><text x="84" y="46" font-family="Georgia, 'Times New Roman', 'DejaVu Serif', serif" font-weight="700" font-size="26" fill="#F2E9D8">The numbers</text></g></g>
</svg>
